PathFileType	4	(X/Y/Z)	subject01_walk1.trc																																																																																																																									
DataRate	CameraRate	NumFrames	NumMarkers	Units	OrigDataRate	OrigDataStartFrame	OrigNumFrames																																																																																																																					
60	60	4	41	mm	60	38	151																																																																																																																					
Frame#	Time	R.ASIS			L.ASIS			V.Sacral			R.Thigh.Upper			R.Thigh.Front			R.Thigh.Rear			L.Thigh.Upper			L.Thigh.Front			L.Thigh.Rear			R.Shank.Upper			R.Shank.Front			R.Shank.Rear			L.Shank.Upper			L.Shank.Front			L.Shank.Rear			R.Heel			R.Midfoot.Sup			R.Midfoot.Lat			R.Toe.Tip			L.Heel			L.Midfoot.Sup			L.Midfoot.Lat			L.Toe.Tip			Sternum			R.Acromium			L.Acromium			R.Bicep			L.Bicep			R.Elbow			L.Elbow			R.Wrist.Med			R.Wrist.Lat			L.Wrist.Med			L.Wrist.Lat			R.Toe.Lat			R.Toe.Med			L.Toe.Lat			L.Toe.Med			R.Temple			L.Temple			Top.Head		
		X1	Y1	Z1	X2	Y2	Z2	X3	Y3	Z3	X4	Y4	Z4	X5	Y5	Z5	X6	Y6	Z6	X7	Y7	Z7	X8	Y8	Z8	X9	Y9	Z9	X10	Y10	Z10	X11	Y11	Z11	X12	Y12	Z12	X13	Y13	Z13	X14	Y14	Z14	X15	Y15	Z15	X16	Y16	Z16	X17	Y17	Z17	X18	Y18	Z18	X19	Y19	Z19	X20	Y20	Z20	X21	Y21	Z21	X22	Y22	Z22	X23	Y23	Z23	X24	Y24	Z24	X25	Y25	Z25	X26	Y26	Z26	X27	Y27	Z27	X28	Y28	Z28	X29	Y29	Z29	X30	Y30	Z30	X31	Y31	Z31	X32	Y32	Z32	X33	Y33	Z33	X34	Y34	Z34	X35	Y35	Z35	X36	Y36	Z36	X37	Y37	Z37	X38	Y38	Z38	X39	Y39	Z39	X40	Y40	Z40	X41	Y41	Z41
																																																																																																																												
38	0.617	607.29193	1048.53101	117.566	607.65247	1035.65466	-143.67473	409.22021	1046.42004	-2.55947	639.783	748.622	172.579	728.92	716.055	88.0399	677.871	633.204	166.008	477.097	731.82	-189.87	548.353	668.706	-122.587	437.531	630.946	-169.475	688.41016	445.64313	160.40939	776.1496	443.38187	114.82167	734.383	372.67453	172.79065	349.60651	449.16074	-159.97617	385.69904	387.12473	-112.11607	316.00525	415.79303	-165.20241	800.95941	56.43383	97.06409	927.87378	127.52796	75.96368	922.71588	104.80963	180.9117	1064.79443	165.1754	126.88313	151.30122	105.16061	-63.08083	319.39798	71.2026	-61.01588	301.69659	67.7054	-134.37906	420.38364	44.11755	-63.82532	640.51483	1347.78833	-15.7518	536.55579	1440.45569	189.87204	587.44641	1463.80664	-224.00467	513.6825	1243.93433	236.19698	629.23853	1230.56189	-252.12723	453.31567	1148.52087	261.17136	598.32678	1126.32092	-292.94748	582.97174	912.1665	271.21973	536.38562	898.88818	314.98169	780.987	967.16986	-216.51379	750.3161	932.56409	-276.24658	1011.76971	121.65438	201.7225	1020.40698	140.36179	92.32745	353.70425	36.87394	-141.25499	375.58624	46.39568	-40.43249	714.59076	1566.76685	71.85493	731.3045	1570.92615	-66.53448	730.00989	1744.27588	12.57295
39	0.633	608.8949	1045.99707	119.01595	608.383	1034.44788	-141.42201	410.98898	1043.5968	3.12743	644.122	748.426	174.756	733.351	717.188	89.813	683.608	633.505	167.736	476.253	730.737	-187.612	546.792	666.93	-120.227	435.933	630.058	-167.731	693.86438	445.19653	161.04218	781.45453	439.69189	112.89323	738.31171	370.62543	171.508	346.06406	449.9704	-160.78188	378.05899	386.67841	-111.11449	310.58005	417.25525	-165.44328	791.3877	56.83569	94.95457	921.85529	120.35616	73.64478	914.7453	98.68701	178.70094	1059.61511	150.70799	124.18157	135.3382	110.76883	-64.36597	302.44861	69.02702	-69.30095	284.45599	68.27063	-135.27478	401.68988	43.97198	-63.96186	641.16119	1344.88916	-12.28966	537.2702	1437.06848	194.5258	587.51886	1461.79321	-219.57825	514.84698	1240.27686	239.65097	627.73804	1229.61414	-249.1423	455.69641	1144.36389	264.84351	596.49799	1126.15369	-291.75873	587.39502	908.96545	273.02518	540.45453	894.83142	318.1543	777.1236	961.836	-217.17429	746.15674	928.1994	-276.38702	1002.61566	108.88644	199.08852	1013.60052	127.02373	90.36989	335.12677	36.9066	-141.60614	357.97147	45.69538	-40.82858	715.53577	1565.44788	76.79471	731.52893	1569.00256	-61.09388	730.11078	1742.01147	17.45728
40	0.65	611.28754	1044.31372	122.25097	609.24634	1032.71338	-139.16844	413.35907	1041.37756	8.79505	648.637	748.729	177.666	738.103	718.926	92.4576	689.546	634.339	170.152	476.387	729.827	-184.734	546.23	665.444	-117.172	435.463	629.281	-165.428	699.48248	445.08429	160.24312	788.16876	437.11807	109.06168	739.41931	368.76385	170.34373	342.95081	450.65958	-161.25537	372.42584	385.16501	-112.69652	306.79141	419.04541	-165.67059	778.41943	57.96999	93.16856	912.45038	111.88302	71.50459	903.54608	91.64961	176.60188	1051.75427	133.28862	121.66878	120.54929	117.86085	-65.94403	286.45816	70.87849	-69.25899	267.62003	68.89233	-136.14867	382.99158	43.88969	-63.96416	641.68799	1343.16431	-8.18587	538.19598	1434.26929	198.85437	588.70813	1461.75916	-215.81197	516.92267	1237.49414	243.61034	625.79779	1228.47803	-245.29202	458.5177	1140.72119	268.7406	595.03918	1125.25378	-288.63742	591.6814	905.97925	276.18152	545.17987	892.01508	320.63019	771.65161	956.65314	-217.03542	740.08295	924.77997	-277.31546	990.24335	94.41219	197.69524	1003.79773	111.32642	88.66818	316.56372	36.92905	-141.8394	340.58167	44.87072	-40.95996	715.59509	1563.36169	81.73156	731.09711	1567.7168	-56.22723	729.83972	1740.62561	23.02777
41	0.667	613.99084	1043.13611	124.55566	610.95721	1032.12524	-137.03075	416.03833	1039.99231	13.65537	653.055	749.511	180.106	742.64	720.782	94.6536	695.113	635.558	172.289	477.938	729.49	-182.273	547.3	664.907	-114.408	436.788	628.954	-163.4	702.75702	446.11569	159.40517	790.46039	435.51947	108.20208	741.22955	368.28577	168.02141	341.51044	451.8121	-161.46519	369.14026	385.05417	-112.07448	304.99692	421.10522	-165.95497	763.73663	59.69804	92.03382	900.60583	103.46324	69.7822	890.51587	84.80969	174.84702	1041.7019	115.83575	119.52025	107.19576	126.78181	-67.79694	271.41193	76.39135	-61.59337	251.30795	69.68269	-136.90814	364.14792	43.77568	-63.84371	643.34564	1342.85413	-3.50668	539.51947	1431.94934	204.36345	589.04132	1461.02991	-209.81772	519.86615	1234.45337	247.84969	626.84149	1228.51587	-242.10558	461.73138	1137.71265	272.72574	594.22534	1125.35413	-285.52765	596.11646	904.31952	279.79364	549.89374	889.71027	323.27649	766.25574	950.87714	-217.70268	732.40222	920.9538	-278.49469	979.73865	80.11802	196.91969	991.89697	96.17546	87.17467	298.11539	36.93153	-141.81834	323.37076	43.98932	-40.77343	716.33539	1562.28418	86.21885	731.57251	1567.27209	-51.1662	729.93549	1740.38916	28.59861
